<svg width="617" height="200" viewBox="0 0 617 200" fill="none" xmlns="http://www.w3.org/2000/svg">
<rect width="200" height="200" rx="25" fill="#636B2F"/>
<g filter="url(#filter0_d_10_23)">
<path d="M101.74 48.1818H123.267V114.304C123.267 121.728 121.494 128.224 117.947 133.793C114.434 139.361 109.512 143.703 103.182 146.818C96.8513 149.901 89.4768 151.442 81.0582 151.442C72.6065 151.442 65.2154 149.901 58.8849 146.818C52.5545 143.703 47.6326 139.361 44.1193 133.793C40.6061 128.224 38.8494 121.728 38.8494 114.304V48.1818H60.3764V112.464C60.3764 116.342 61.2216 119.789 62.9119 122.805C64.6354 125.821 67.0549 128.191 70.1705 129.915C73.286 131.638 76.9152 132.5 81.0582 132.5C85.2344 132.5 88.8636 131.638 91.946 129.915C95.0616 128.191 97.4645 125.821 99.1548 122.805C100.878 119.789 101.74 116.342 101.74 112.464V48.1818ZM148.175 151.293C144.893 151.293 142.076 150.133 139.723 147.812C137.403 145.459 136.243 142.642 136.243 139.361C136.243 136.113 137.403 133.329 139.723 131.009C142.076 128.688 144.893 127.528 148.175 127.528C151.357 127.528 154.141 128.688 156.527 131.009C158.913 133.329 160.107 136.113 160.107 139.361C160.107 141.548 159.543 143.554 158.416 145.376C157.322 147.166 155.881 148.608 154.091 149.702C152.301 150.762 150.329 151.293 148.175 151.293Z" fill="white"/>
</g>
<path d="M260.631 105.852V150H239.452V73.6364H259.636V87.1094H260.531C262.222 82.6681 265.055 79.1548 269.033 76.5696C273.01 73.9512 277.832 72.642 283.5 72.642C288.803 72.642 293.427 73.8021 297.371 76.1222C301.315 78.4422 304.381 81.7566 306.568 86.0653C308.756 90.3409 309.849 95.4451 309.849 101.378V150H288.67V105.156C288.704 100.483 287.51 96.8371 285.091 94.2188C282.671 91.5672 279.34 90.2415 275.098 90.2415C272.248 90.2415 269.729 90.8546 267.541 92.081C265.387 93.3073 263.696 95.0971 262.47 97.4503C261.277 99.7704 260.664 102.571 260.631 105.852ZM326.542 150V73.6364H347.721V150H326.542ZM337.181 63.7926C334.032 63.7926 331.331 62.7486 329.077 60.6605C326.856 58.5393 325.746 56.0038 325.746 53.054C325.746 50.1373 326.856 47.6349 329.077 45.5469C331.331 43.4257 334.032 42.3651 337.181 42.3651C340.329 42.3651 343.014 43.4257 345.235 45.5469C347.489 47.6349 348.615 50.1373 348.615 53.054C348.615 56.0038 347.489 58.5393 345.235 60.6605C343.014 62.7486 340.329 63.7926 337.181 63.7926ZM399.487 151.491C391.632 151.491 384.871 149.901 379.203 146.719C373.569 143.504 369.227 138.963 366.178 133.097C363.128 127.197 361.604 120.22 361.604 112.166C361.604 104.311 363.128 97.4171 366.178 91.4844C369.227 85.5516 373.519 80.928 379.054 77.6136C384.622 74.2992 391.152 72.642 398.642 72.642C403.68 72.642 408.37 73.4541 412.712 75.0781C417.087 76.669 420.898 79.072 424.146 82.2869C427.428 85.5019 429.98 89.5455 431.803 94.4176C433.625 99.2566 434.537 104.924 434.537 111.42V117.237H370.055V104.112H414.601C414.601 101.063 413.938 98.3617 412.612 96.0085C411.286 93.6553 409.447 91.8158 407.094 90.4901C404.774 89.1312 402.072 88.4517 398.99 88.4517C395.775 88.4517 392.925 89.1974 390.439 90.6889C387.986 92.1473 386.064 94.1193 384.672 96.6051C383.28 99.0578 382.567 101.792 382.534 104.808V117.287C382.534 121.065 383.23 124.33 384.622 127.081C386.047 129.832 388.053 131.953 390.638 133.445C393.223 134.936 396.289 135.682 399.835 135.682C402.188 135.682 404.343 135.35 406.298 134.688C408.254 134.025 409.928 133.03 411.32 131.705C412.712 130.379 413.772 128.755 414.501 126.832L434.089 128.125C433.095 132.831 431.057 136.941 427.974 140.455C424.925 143.935 420.981 146.652 416.142 148.608C411.336 150.53 405.785 151.491 399.487 151.491ZM488.976 73.6364V89.5455H442.989V73.6364H488.976ZM453.429 55.3409H474.608V126.534C474.608 128.49 474.906 130.014 475.503 131.108C476.099 132.169 476.928 132.914 477.989 133.345C479.082 133.776 480.342 133.991 481.767 133.991C482.761 133.991 483.756 133.909 484.75 133.743C485.744 133.544 486.507 133.395 487.037 133.295L490.368 149.055C489.307 149.387 487.816 149.768 485.893 150.199C483.971 150.663 481.634 150.945 478.884 151.044C473.779 151.243 469.305 150.563 465.46 149.006C461.649 147.448 458.682 145.028 456.561 141.747C454.44 138.466 453.396 134.323 453.429 129.318V55.3409ZM525.592 48.1818V150H504.413V48.1818H525.592ZM555.632 178.636C552.948 178.636 550.429 178.421 548.076 177.99C545.756 177.592 543.833 177.079 542.309 176.449L547.081 160.639C549.567 161.402 551.804 161.816 553.793 161.882C555.815 161.948 557.555 161.484 559.013 160.49C560.505 159.496 561.714 157.805 562.642 155.419L563.885 152.188L536.492 73.6364H558.765L574.574 129.716H575.37L591.328 73.6364H613.75L584.07 158.253C582.645 162.363 580.706 165.942 578.253 168.991C575.834 172.074 572.768 174.444 569.056 176.101C565.344 177.791 560.869 178.636 555.632 178.636Z" fill="#636B2F"/>
<defs>
<filter id="filter0_d_10_23" x="28.8496" y="38.1816" width="141.258" height="123.26" filterUnits="userSpaceOnUse" color-interpolation-filters="sRGB">
<feFlood flood-opacity="0" result="BackgroundImageFix"/>
<feColorMatrix in="SourceAlpha" type="matrix" values="0 0 0 0 0 0 0 0 0 0 0 0 0 0 0 0 0 0 127 0" result="hardAlpha"/>
<feOffset/>
<feGaussianBlur stdDeviation="5"/>
<feComposite in2="hardAlpha" operator="out"/>
<feColorMatrix type="matrix" values="0 0 0 0 0 0 0 0 0 0 0 0 0 0 0 0 0 0 0.25 0"/>
<feBlend mode="normal" in2="BackgroundImageFix" result="effect1_dropShadow_10_23"/>
<feBlend mode="normal" in="SourceGraphic" in2="effect1_dropShadow_10_23" result="shape"/>
</filter>
</defs>
</svg>
